<mxfile host="app.diagrams.net" agent="Mozilla/5.0 (Windows NT 10.0; Win64; x64) AppleWebKit/537.36 (KHTML, like Gecko) Chrome/109.0.0.0 Safari/537.36" version="24.8.6">
  <diagram id="D2cn9X_cYDQ9o3Wj9-5q" name="Trang-2">
    <mxGraphModel dx="666" dy="534" grid="0" gridSize="10" guides="1" tooltips="1" connect="1" arrows="1" fold="1" page="0" pageScale="1" pageWidth="827" pageHeight="1169" math="0" shadow="0">
      <root>
        <mxCell id="0" />
        <mxCell id="1" parent="0" />
        <mxCell id="Xjue9dhPA2JcfEND0r62-1" style="edgeStyle=orthogonalEdgeStyle;rounded=0;orthogonalLoop=1;jettySize=auto;html=1;exitX=0.5;exitY=1;exitDx=0;exitDy=0;entryX=0.5;entryY=0;entryDx=0;entryDy=0;" edge="1" parent="1" source="Xjue9dhPA2JcfEND0r62-2" target="Xjue9dhPA2JcfEND0r62-4">
          <mxGeometry relative="1" as="geometry" />
        </mxCell>
        <mxCell id="Xjue9dhPA2JcfEND0r62-2" value="Start" style="ellipse;whiteSpace=wrap;html=1;" vertex="1" parent="1">
          <mxGeometry x="140" y="30" width="120" height="80" as="geometry" />
        </mxCell>
        <mxCell id="Xjue9dhPA2JcfEND0r62-3" style="edgeStyle=orthogonalEdgeStyle;rounded=0;orthogonalLoop=1;jettySize=auto;html=1;exitX=0.5;exitY=1;exitDx=0;exitDy=0;entryX=0.5;entryY=0;entryDx=0;entryDy=0;" edge="1" parent="1" source="Xjue9dhPA2JcfEND0r62-4" target="Xjue9dhPA2JcfEND0r62-7">
          <mxGeometry relative="1" as="geometry" />
        </mxCell>
        <mxCell id="Xjue9dhPA2JcfEND0r62-4" value="Nháº­p num1,num2,total" style="rounded=0;whiteSpace=wrap;html=1;" vertex="1" parent="1">
          <mxGeometry x="140" y="150" width="120" height="60" as="geometry" />
        </mxCell>
        <mxCell id="Xjue9dhPA2JcfEND0r62-5" style="edgeStyle=orthogonalEdgeStyle;rounded=0;orthogonalLoop=1;jettySize=auto;html=1;exitX=0.5;exitY=1;exitDx=0;exitDy=0;entryX=0.5;entryY=0;entryDx=0;entryDy=0;" edge="1" parent="1" source="Xjue9dhPA2JcfEND0r62-7" target="Xjue9dhPA2JcfEND0r62-9">
          <mxGeometry relative="1" as="geometry" />
        </mxCell>
        <mxCell id="Xjue9dhPA2JcfEND0r62-6" style="edgeStyle=orthogonalEdgeStyle;rounded=0;orthogonalLoop=1;jettySize=auto;html=1;exitX=1;exitY=0.5;exitDx=0;exitDy=0;" edge="1" parent="1" source="Xjue9dhPA2JcfEND0r62-7">
          <mxGeometry relative="1" as="geometry">
            <mxPoint x="270" y="280" as="targetPoint" />
          </mxGeometry>
        </mxCell>
        <mxCell id="Xjue9dhPA2JcfEND0r62-7" value="total = num1 + num2" style="shape=parallelogram;perimeter=parallelogramPerimeter;whiteSpace=wrap;html=1;fixedSize=1;" vertex="1" parent="1">
          <mxGeometry x="120" y="250" width="160" height="60" as="geometry" />
        </mxCell>
        <mxCell id="Xjue9dhPA2JcfEND0r62-8" style="edgeStyle=orthogonalEdgeStyle;rounded=0;orthogonalLoop=1;jettySize=auto;html=1;exitX=0.5;exitY=1;exitDx=0;exitDy=0;entryX=0.5;entryY=0;entryDx=0;entryDy=0;" edge="1" parent="1" source="Xjue9dhPA2JcfEND0r62-9">
          <mxGeometry relative="1" as="geometry">
            <mxPoint x="200" y="476" as="targetPoint" />
          </mxGeometry>
        </mxCell>
        <mxCell id="Xjue9dhPA2JcfEND0r62-9" value="total" style="rounded=0;whiteSpace=wrap;html=1;" vertex="1" parent="1">
          <mxGeometry x="140" y="360" width="120" height="60" as="geometry" />
        </mxCell>
        <mxCell id="Xjue9dhPA2JcfEND0r62-11" value="END" style="ellipse;whiteSpace=wrap;html=1;" vertex="1" parent="1">
          <mxGeometry x="140" y="475" width="120" height="80" as="geometry" />
        </mxCell>
      </root>
    </mxGraphModel>
  </diagram>
</mxfile>
